<svg xmlns="http://www.w3.org/2000/svg" width="18" height="18" viewBox="0 0 18 18">
  <g id="gift" transform="translate(-236 -252)">
    <path id="Vector" d="M12,0H0V6C0,8.25.75,9,3,9H9c2.25,0,3-.75,3-3Z" transform="translate(238.978 259.5)" fill="none" stroke="#fff" stroke-linecap="round" stroke-linejoin="round" stroke-width="1.5"/>
    <path id="Vector-2" data-name="Vector" d="M14.25,1.5v.75a1.353,1.353,0,0,1-1.5,1.5H1.5A1.333,1.333,0,0,1,0,2.25V1.5A1.333,1.333,0,0,1,1.5,0H12.75A1.353,1.353,0,0,1,14.25,1.5Z" transform="translate(237.875 255.75)" fill="none" stroke="#fff" stroke-linecap="round" stroke-linejoin="round" stroke-width="1.5"/>
    <path id="Vector-3" data-name="Vector" d="M4.326,2.248H.186a.7.7,0,0,1,.023-.975L1.273.208a.72.72,0,0,1,1.013,0Z" transform="translate(240.404 253.502)" fill="none" stroke="#fff" stroke-linecap="round" stroke-linejoin="round" stroke-width="1.5"/>
    <path id="Vector-4" data-name="Vector" d="M4.14,2.248H0L2.04.208a.72.72,0,0,1,1.013,0L4.117,1.273A.7.7,0,0,1,4.14,2.248Z" transform="translate(245.263 253.502)" fill="none" stroke="#fff" stroke-linecap="round" stroke-linejoin="round" stroke-width="1.5"/>
    <path id="Vector-5" data-name="Vector" d="M0,0V3.855a.752.752,0,0,0,1.163.63l.705-.465a.749.749,0,0,1,.825,0l.668.45a.748.748,0,0,0,1.163-.623V0Z" transform="translate(242.705 259.5)" fill="none" stroke="#fff" stroke-linecap="round" stroke-linejoin="round" stroke-width="1.5"/>
    <path id="Vector-6" data-name="Vector" d="M0,0H18V18H0Z" transform="translate(254 270) rotate(180)" fill="none" opacity="0"/>
  </g>
</svg>
