<svg xmlns="http://www.w3.org/2000/svg" width="81" height="81" viewBox="0 0 81 81">
  <g id="Group_1013" data-name="Group 1013" transform="translate(-643 -227)">
    <circle id="Ellipse_1" data-name="Ellipse 1" cx="40.5" cy="40.5" r="40.5" transform="translate(643 227)" fill="#f7f7f7"/>
    <g id="vuesax_linear_gallery-add" data-name="vuesax/linear/gallery-add" transform="translate(-74 6)">
      <g id="gallery-add" transform="translate(748 252)">
        <path id="Vector" d="M3.333,1.667A1.667,1.667,0,1,1,1.667,0,1.667,1.667,0,0,1,3.333,1.667Z" transform="translate(5.833 5)" fill="none" stroke="#ef3131" stroke-linecap="round" stroke-linejoin="round" stroke-width="1.5"/>
        <path id="Vector-2" data-name="Vector" d="M9.167,0H5.833C1.667,0,0,1.667,0,5.833v5C0,15,1.667,16.667,5.833,16.667h5c4.167,0,5.833-1.667,5.833-5.833V6.667" transform="translate(1.667 1.667)" fill="none" stroke="#ef3131" stroke-linecap="round" stroke-linejoin="round" stroke-width="1.5"/>
        <path id="Vector-3" data-name="Vector" d="M0,0H4.583" transform="translate(13.125 4.167)" fill="none" stroke="#ef3131" stroke-linecap="round" stroke-width="1.5"/>
        <path id="Vector-4" data-name="Vector" d="M0,4.583V0" transform="translate(15.417 1.875)" fill="none" stroke="#ef3131" stroke-linecap="round" stroke-width="1.5"/>
        <path id="Vector-5" data-name="Vector" d="M0,5.794,4.108,3.035a1.878,1.878,0,0,1,2.2.117l.275.242a1.858,1.858,0,0,0,2.35,0L12.4.419a1.858,1.858,0,0,1,2.35,0l1.358,1.167" transform="translate(2.225 9.998)" fill="none" stroke="#ef3131" stroke-linecap="round" stroke-linejoin="round" stroke-width="1.5"/>
        <path id="Vector-6" data-name="Vector" d="M0,0H20V20H0Z" fill="none" opacity="0"/>
      </g>
    </g>
  </g>
</svg>
